<svg id="Layer_1" data-name="Layer 1" xmlns="http://www.w3.org/2000/svg" xmlns:xlink="http://www.w3.org/1999/xlink" viewBox="0 0 1032.02 1021.49"><defs><style>.cls-1{fill:none;clip-rule:evenodd;}.cls-2{fill:#35383b;}.cls-3{clip-path:url(#clip-path);}.cls-4{fill:url(#linear-gradient);}.cls-5{clip-path:url(#clip-path-2);}.cls-6{fill:url(#linear-gradient-2);}.cls-7{clip-path:url(#clip-path-3);}.cls-8{fill:url(#linear-gradient-3);}.cls-9{clip-path:url(#clip-path-4);}.cls-10{fill:url(#linear-gradient-4);}.cls-11{clip-path:url(#clip-path-5);}.cls-12{fill:url(#linear-gradient-5);}.cls-13{clip-path:url(#clip-path-6);}.cls-14{fill:url(#linear-gradient-6);}.cls-15{clip-path:url(#clip-path-7);}.cls-16{fill:url(#linear-gradient-7);}.cls-17{clip-path:url(#clip-path-8);}.cls-18{fill:url(#linear-gradient-8);}.cls-19{clip-path:url(#clip-path-9);}.cls-20{fill:url(#linear-gradient-9);}.cls-21{clip-path:url(#clip-path-10);}.cls-22{fill:url(#linear-gradient-10);}.cls-23{clip-path:url(#clip-path-11);}.cls-24{fill:url(#linear-gradient-11);}.cls-25{fill:#e5e6e7;fill-rule:evenodd;}</style><clipPath id="clip-path" transform="translate(-483.99 -489.26)"><path class="cls-1" d="M888.14,1106a220.9,220.9,0,0,1,6.36-261.11,132.23,132.23,0,0,1,13.68-16.07L1000,737q111.24-108.88,0-247.7L784.33,704.92c-119.11,119.12-119.11,312.23,0,431.34,100.52,100.52,253.75,116.21,370.73,47.07A220.88,220.88,0,0,1,888.14,1106"/></clipPath><linearGradient id="linear-gradient" x1="171.64" y1="896.72" x2="797.27" y2="-369.53" gradientUnits="userSpaceOnUse"><stop offset="0" stop-color="#0131b8"/><stop offset="1" stop-color="#2dd9ff"/></linearGradient><clipPath id="clip-path-2" transform="translate(-483.99 -489.26)"><path class="cls-1" d="M888.14,1106a220.9,220.9,0,0,1,6.36-261.11,217.42,217.42,0,0,0,260.56,338.49A220.88,220.88,0,0,1,888.14,1106"/></clipPath><linearGradient id="linear-gradient-2" x1="403.81" y1="334.09" x2="620.22" y2="796.59" gradientUnits="userSpaceOnUse"><stop offset="0" stop-color="#0131b8"/><stop offset="0.13" stop-color="#053fbe"/><stop offset="0.37" stop-color="#0e63cd"/><stop offset="0.7" stop-color="#1d9ee6"/><stop offset="1" stop-color="#2dd9ff"/></linearGradient><clipPath id="clip-path-3" transform="translate(-483.99 -489.26)"><path class="cls-1" d="M999.13,503.39,791,711.56C675.51,827,675.51,1014.18,791,1129.63a296,296,0,0,0,254.27,83.18,266.66,266.66,0,0,1-193.93-78c-104.07-104.08-104.07-272.82,0-376.9l138-138c41.09-44.83,59-45.24,9.82-116.49"/></clipPath><linearGradient id="linear-gradient-3" x1="161.13" y1="894.65" x2="656.47" y2="-290.81" gradientUnits="userSpaceOnUse"><stop offset="0" stop-color="#0131b8"/><stop offset="0.07" stop-color="#053fbe"/><stop offset="0.52" stop-color="#1a91e1"/><stop offset="0.84" stop-color="#28c5f7"/><stop offset="1" stop-color="#2dd9ff"/></linearGradient><clipPath id="clip-path-4" transform="translate(-483.99 -489.26)"><path class="cls-1" d="M1029.94,1047A129.91,129.91,0,0,1,894.5,844.84a220.88,220.88,0,0,0,260.56,338.49,305.73,305.73,0,0,0,60.61-47.07c119.11-119.11,119.11-312.22,0-431.34L1185.77,675a240.36,240.36,0,0,1-155.83,372"/></clipPath><linearGradient id="linear-gradient-4" x1="184.04" y1="623.27" x2="1147.09" y2="245.31" gradientUnits="userSpaceOnUse"><stop offset="0" stop-color="#ec1c24"/><stop offset="1" stop-color="#fff100"/></linearGradient><clipPath id="clip-path-5" transform="translate(-483.99 -489.26)"><path class="cls-1" d="M1185.77,675a240.36,240.36,0,0,1-155.83,372,226.54,226.54,0,0,0,155.83-372"/></clipPath><linearGradient id="linear-gradient-5" x1="663.12" y1="247.59" x2="649.7" y2="585.76" gradientUnits="userSpaceOnUse"><stop offset="0" stop-color="#ec1c24"/><stop offset="0.1" stop-color="#ed2622"/><stop offset="0.26" stop-color="#ef401e"/><stop offset="0.47" stop-color="#f36c17"/><stop offset="0.73" stop-color="#f8a70c"/><stop offset="1" stop-color="#fff100"/></linearGradient><clipPath id="clip-path-6" transform="translate(-483.99 -489.26)"><path class="cls-1" d="M895.58,1100.77a211.85,211.85,0,0,0,255.4,74.44,297,297,0,0,0,58.28-45.36c111.49-111.49,115.43-289.79,11.81-406a258.59,258.59,0,0,1-325.49,376.92"/></clipPath><linearGradient id="linear-gradient-6" x1="197.62" y1="658.94" x2="1055.71" y2="299.56" gradientUnits="userSpaceOnUse"><stop offset="0" stop-color="#ec1c24"/><stop offset="0.2" stop-color="#f0481d"/><stop offset="0.75" stop-color="#fbc108"/><stop offset="1" stop-color="#fff100"/></linearGradient><clipPath id="clip-path-7" transform="translate(-483.99 -489.26)"><path class="cls-1" d="M885.07,981.11a129.91,129.91,0,0,1,9.43-136.27,220.88,220.88,0,0,0,260.56,338.49,210.18,210.18,0,0,1-270-202.22Z"/></clipPath><linearGradient id="linear-gradient-7" x1="334.71" y1="621.83" x2="1152.58" y2="263.25" gradientUnits="userSpaceOnUse"><stop offset="0" stop-color="#ec1c24"/><stop offset="0.15" stop-color="#ec2023"/><stop offset="0.29" stop-color="#ed2b22"/><stop offset="0.42" stop-color="#ef3d1e"/><stop offset="0.55" stop-color="#f1571a"/><stop offset="0.68" stop-color="#f47814"/><stop offset="0.81" stop-color="#f8a10d"/><stop offset="0.93" stop-color="#fcd105"/><stop offset="1" stop-color="#fff100"/></linearGradient><clipPath id="clip-path-8" transform="translate(-483.99 -489.26)"><path class="cls-1" d="M1091.82,828.77A129.92,129.92,0,0,1,1029.94,1047a240.36,240.36,0,0,0,155.83-372L1000,489.26q111.24,138.82,0,247.7Z"/></clipPath><linearGradient id="linear-gradient-8" x1="552.7" y1="708.24" x2="724.15" y2="-169.47" gradientUnits="userSpaceOnUse"><stop offset="0" stop-color="#4a1877"/><stop offset="0.16" stop-color="#4f197c"/><stop offset="0.34" stop-color="#5c1c8a"/><stop offset="0.53" stop-color="#7321a1"/><stop offset="0.73" stop-color="#9229c1"/><stop offset="0.94" stop-color="#ba32ea"/><stop offset="1" stop-color="#c735f7"/></linearGradient><clipPath id="clip-path-9" transform="translate(-483.99 -489.26)"><path class="cls-1" d="M1212,864a231.56,231.56,0,0,0-33.38-183L1049.73,552.09c15.86,36.9,19.9,73.77,9.13,109.89Q1172.64,775.92,1212,864"/></clipPath><linearGradient id="linear-gradient-9" x1="558.42" y1="709.36" x2="729.88" y2="-168.35" gradientUnits="userSpaceOnUse"><stop offset="0" stop-color="#4a1877"/><stop offset="0.15" stop-color="#551a82"/><stop offset="0.4" stop-color="#71219f"/><stop offset="0.73" stop-color="#9e2bcd"/><stop offset="1" stop-color="#c735f7"/></linearGradient><clipPath id="clip-path-10" transform="translate(-483.99 -489.26)"><path class="cls-1" d="M1054.23,543.49,1000,489.26q111.24,138.82,0,247.7l12,11.95c66.47-65,74.5-135.43,42.27-205.42"/></clipPath><linearGradient id="linear-gradient-10" x1="487.36" y1="485.61" x2="623.77" y2="-189.56" gradientUnits="userSpaceOnUse"><stop offset="0" stop-color="#4a1877"/><stop offset="0.2" stop-color="#4d197a"/><stop offset="0.38" stop-color="#581b85"/><stop offset="0.54" stop-color="#691f97"/><stop offset="0.7" stop-color="#8225b0"/><stop offset="0.85" stop-color="#a12cd0"/><stop offset="1" stop-color="#c735f7"/></linearGradient><clipPath id="clip-path-11" transform="translate(-483.99 -489.26)"><path class="cls-1" d="M1122,965.06a130.19,130.19,0,0,1-92.1,81.93,240.36,240.36,0,0,0,155.83-372,256.53,256.53,0,0,1-63.72,290Z"/></clipPath><linearGradient id="linear-gradient-11" x1="636.73" y1="593.34" x2="688.13" y2="-175.38" gradientUnits="userSpaceOnUse"><stop offset="0" stop-color="#4a1877"/><stop offset="0.18" stop-color="#4e197b"/><stop offset="0.36" stop-color="#591c87"/><stop offset="0.53" stop-color="#6c209a"/><stop offset="0.7" stop-color="#8726b5"/><stop offset="0.87" stop-color="#a92ed8"/><stop offset="1" stop-color="#c735f7"/></linearGradient></defs><path class="cls-2" d="M907.43,1361.21c-9.42,0-11.75,3.6-11.75,14v64.43a2.71,2.71,0,0,0,3,3h14.18a2.71,2.71,0,0,0,3-3v-57.1c0-.81.23-1.16.93-1.16h.93a1.31,1.31,0,0,1,1.39.81l18.49,47.22c3.84,9.89,8.15,13.26,17.1,13.26h6.63c9,0,13.26-3.37,17.1-13.26L997,1382.14a1.31,1.31,0,0,1,1.39-.81h1c.58,0,.81.35.81,1.16v57.1a2.71,2.71,0,0,0,3,3h14.18a2.71,2.71,0,0,0,3-3v-64.43c0-10.35-2.33-14-11.75-14H994.07c-7.91,0-10.93,1.51-14.19,10.35L960.69,1423a1.6,1.6,0,0,1-1.63,1.17h-1.39a1.39,1.39,0,0,1-1.51-1.17l-19.43-51.4c-3.37-8.84-6.16-10.35-14.18-10.35Zm-79.08,0c-23.85,0-32.92,8.37-32.92,30.7v20c0,22.33,9.07,30.71,32.92,30.71h51.28c2.1,0,3-1,3-3v-13c0-2.1-.93-3-3-3H828.69c-10.11,0-12.67-2.68-12.67-13.61h62.91c2.1,0,3-.93,3-3v-10.69c0-2.1-.93-3-3-3H816c0-10.23,2.67-12.79,12.67-12.79h50.94c2.1,0,3-1.05,3-3.14v-13c0-2-.93-3-3-3Zm-114.44,20.35c0-1,.47-1.51,1.4-1.51H755c6.4,0,8.49,2.56,8.49,8v5c0,5.47-2.09,8-8.49,8H713.91Zm-17.68-20.35c-2.32,0-3.49,1.16-3.49,3.49v74.89a2.71,2.71,0,0,0,3,3h15.12a2.71,2.71,0,0,0,3-3v-21.86h32.56l17.1,23.26c.81,1,1.51,1.63,3.72,1.63H785.2a2,2,0,0,0,1.74-3.37l-18.72-23.73c11.63-2.56,16.4-10.35,16.4-23.14v-7.1c0-15.7-7.21-24.07-25.47-24.07Zm-98.38,32.33c0-10.58,2.44-13.14,12.56-13.14h34.65c10.12,0,12.56,2.56,12.56,13.14v16.75c0,10.58-2.44,13.26-12.56,13.26H610.41c-10.12,0-12.56-2.68-12.56-13.26Zm11.74-32.33c-23.84,0-32.91,8.37-32.91,30.7v20c0,22.33,9.07,30.71,32.91,30.71h36.29c23.84,0,32.91-8.38,32.91-30.71v-20c0-22.33-9.07-30.7-32.91-30.7Zm-122.58,0a2.7,2.7,0,0,0-3,3v47.68c0,22.33,9.07,30.71,32.91,30.71h47.8c2.09,0,3.14-1,3.14-3V1426c0-2-1.05-3-3.14-3h-47c-10.12,0-12.56-2.67-12.56-13.14v-45.59a2.71,2.71,0,0,0-3-3Z" transform="translate(-483.99 -489.26)"/><path class="cls-2" d="M1402.62,1361.21c-6.86,0-8.72,2.79-8.72,10.23v69.08a1.85,1.85,0,0,0,2.09,2.1h9.65a1.86,1.86,0,0,0,2.1-2.1v-64.31c0-.81.35-1.16,1-1.16H1410a1.46,1.46,0,0,1,1.62.93l28.5,57.22c3.37,6.86,6,9.42,12.56,9.42h4.53c6.52,0,9.19-2.56,12.56-9.42l28.5-57.22a1.54,1.54,0,0,1,1.62-.93h1.28c.7,0,.93.35.93,1.16v64.31a1.86,1.86,0,0,0,2.1,2.1h9.65c1.51,0,2.21-.7,2.21-2.1v-69.08c0-7.44-2-10.23-8.84-10.23h-10.12c-5.93,0-7.67,1.28-10.58,7.44l-29,60a1.87,1.87,0,0,1-1.86,1.16h-1.16a1.84,1.84,0,0,1-1.75-1.16l-29.07-60c-3-6.16-4.65-7.44-10.58-7.44Zm-119.9,0a1.85,1.85,0,0,0-2.1,2.09v48.61c0,22.33,8.84,30.71,32.22,30.71h33c23.37,0,32.21-8.38,32.21-30.71V1363.3a1.85,1.85,0,0,0-2.09-2.09h-10.24a1.85,1.85,0,0,0-2.09,2.09v47.22c0,14.07-4.42,18.61-18.26,18.61h-32.1c-13.83,0-18.26-4.54-18.26-18.61V1363.3a1.85,1.85,0,0,0-2.09-2.09Zm-83.16,0c-13.48,0-19.42,7.44-19.42,18.49v8.49c0,12.21,6.52,19.07,19.31,19.07h45.36c5.23,0,7.55,2.79,7.55,8.14v5.82c0,5-2.09,8.14-7.67,8.14h-62.34c-1.39,0-2.09.7-2.09,2.21v9a1.85,1.85,0,0,0,2.09,2.1h65c13.61,0,19.54-7.45,19.54-18.38v-9.53c0-12.21-6.51-19.08-19.3-19.08h-45.36c-5.35,0-7.68-2.79-7.68-8.14v-4.88c0-5,2.1-8.14,7.68-8.14h59.54c1.4,0,2.1-.7,2.1-2.21v-9a1.85,1.85,0,0,0-2.1-2.09ZM1094,1375.63a1.23,1.23,0,0,1,1.39-1.39H1142c9.42,0,12.91,4.3,12.91,12.67v4.54c0,8.37-3.49,12.67-12.91,12.67h-48ZM1083,1361.21q-3.49,0-3.49,3.49v75.82a1.85,1.85,0,0,0,2.09,2.1h10.24a1.85,1.85,0,0,0,2.09-2.1v-23.84h50.82c17.56,0,24.66-8.25,24.66-23.84v-7.91c0-15.46-7.1-23.72-24.66-23.72Zm-31.87,0a1.85,1.85,0,0,0-2.09,2.09v77.22a1.85,1.85,0,0,0,2.09,2.1h10.23a1.86,1.86,0,0,0,2.1-2.1V1363.3a1.85,1.85,0,0,0-2.1-2.09Z" transform="translate(-483.99 -489.26)"/><path class="cls-2" d="M1276.2,1470.48c-11.56,0-15.93,4.14-15.93,15.19v9.89c0,11,4.37,15.18,15.93,15.18h25.25a.91.91,0,0,0,1-1v-4.43c0-.75-.35-1.1-1-1.1h-25.19c-6.85,0-9-2.18-9-9.14v-1.78h33.88a.91.91,0,0,0,1-1v-3.68c0-.75-.34-1-1-1h-33.88v-1.33c0-7,2.18-9.14,9-9.14h25.19c.69,0,1-.35,1-1.1v-4.42a.92.92,0,0,0-1-1Zm-67.69,7.13c0-.51.23-.69.69-.69h23.07c4.66,0,6.38,2.07,6.38,6.21v2.48c0,4.14-1.72,6.21-6.38,6.21h-23.76Zm-5.4-7.13a1.53,1.53,0,0,0-1.73,1.73v37.5a.91.91,0,0,0,1,1h5.06a.91.91,0,0,0,1-1v-12.14h20.88l9.84,12.54a1.41,1.41,0,0,0,1.38.63h6a.76.76,0,0,0,.63-1.26l-10.41-12.6c6.39-.92,9-4.83,9-11.5v-3.17c0-7.65-3.5-11.73-12.19-11.73Zm-43.53,0c-11.56,0-15.93,4.14-15.93,15.19v9.89c0,11,4.37,15.18,15.93,15.18h25.25a.91.91,0,0,0,1-1v-4.43c0-.75-.34-1.1-1-1.1h-25.19c-6.85,0-9-2.18-9-9.14v-1.78h33.87a.92.92,0,0,0,1-1v-3.68c0-.75-.35-1-1-1h-33.87v-1.33c0-7,2.18-9.14,9-9.14h25.19c.69,0,1-.35,1-1.1v-4.42a.91.91,0,0,0-1-1Zm-74.88,0a.91.91,0,0,0-1,1v38.19a.91.91,0,0,0,1,1h5.06a.91.91,0,0,0,1-1v-16.22h29.68v16.22a.91.91,0,0,0,1,1h5.07c.74,0,1.09-.34,1.09-1v-38.19c0-.7-.35-1-1.09-1h-5.07a.91.91,0,0,0-1,1v15.87H1090.8v-15.87a.92.92,0,0,0-1-1Zm-80.22,0c-2.93,0-4.37,1.15-4.37,5.06v34.17a.91.91,0,0,0,1,1H1006c.75,0,1.1-.34,1.1-1V1477.9c0-.4.11-.57.45-.57h.58a.94.94,0,0,1,.81.4l25.07,30.19c1.9,2.3,2.71,2.82,5.58,2.82h4.09c3,0,4.42-1.15,4.42-5.06v-34.16a.91.91,0,0,0-1-1h-4.89c-.75,0-1,.34-1,1v31.8c0,.41-.18.58-.52.58h-.58a1,1,0,0,1-.8-.4l-25-30.2c-1.84-2.19-2.53-2.82-5.58-2.82Zm-45.66,7.08a.7.7,0,0,1,.69-.41h.35a.71.71,0,0,1,.69.41l10.64,19h-23Zm-.86-7.08c-2,0-3.45.75-5.06,3.62l-20,35.49c-.35.69-.17,1.15.58,1.15h6a1.07,1.07,0,0,0,1.15-.63l4.48-8.11h29.16l4.55,8.11a1.15,1.15,0,0,0,1.15.63h5.86c.81,0,1-.46.58-1.15L966.3,1474.1c-1.61-2.87-3-3.62-5.52-3.62Zm-67.17,0c-11.56,0-15.93,4.14-15.93,15.19v9.89c0,11,4.37,15.18,15.93,15.18h23c4.54,0,7.07-2.36,7.07-8.8v-12.77a1.52,1.52,0,0,0-1.72-1.72H895.16a.91.91,0,0,0-1,1v3.57a.91.91,0,0,0,1,1h18.29c.46,0,.69.24.69.75v6c0,3.17-1.09,4.32-3.51,4.32H891c-6.84,0-9-2.19-9-9.15v-8.63c0-6.95,2.19-9.2,9-9.2h28.76c.75,0,1.09-.34,1.09-1v-4.6c0-.7-.34-1-1.09-1ZM817,1486.18c0-7,2.18-9.14,9-9.14h17c6.9,0,9,2.18,9,9.14V1495c0,7-2.13,9.14-9,9.14H826c-6.85,0-9-2.18-9-9.14Zm8.8-15.7c-11.56,0-15.93,4.14-15.93,15.19v9.89c0,11,4.37,15.18,15.93,15.18h17.54c11.56,0,15.93-4.14,15.93-15.18v-9.89c0-11.05-4.37-15.19-15.93-15.19Zm-69,0a.92.92,0,0,0-1,1v24c0,11,4.38,15.18,15.94,15.18h23.52c.75,0,1.09-.34,1.09-1v-4.6c0-.69-.34-1-1.09-1H771.93c-6.85,0-9-2.24-9-9.2v-23.35a.92.92,0,0,0-1-1Zm-49.68,0c-6.68,0-9.61,3.68-9.61,9.15v4.19c0,6,3.22,9.44,9.55,9.44h22.43c2.59,0,3.74,1.38,3.74,4v2.88c0,2.47-1,4-3.8,4H698.6c-.69,0-1,.35-1,1.1v4.43a.91.91,0,0,0,1,1h32.16c6.72,0,9.66-3.68,9.66-9.09v-4.71c0-6-3.22-9.43-9.55-9.43H708.44c-2.65,0-3.8-1.38-3.8-4v-2.42c0-2.47,1-4,3.8-4h29.45c.69,0,1-.35,1-1.1v-4.42a.91.91,0,0,0-1-1Z" transform="translate(-483.99 -489.26)"/><g class="cls-3"><rect class="cls-4" x="181.23" width="489.84" height="763.22"/></g><g class="cls-5"><rect class="cls-6" x="337.08" y="355.59" width="333.99" height="385.55"/></g><g class="cls-7"><rect class="cls-8" x="191.52" y="14.13" width="372.78" height="723.42"/></g><g class="cls-9"><rect class="cls-10" x="348.64" y="185.77" width="502.15" height="548.72"/></g><g class="cls-11"><rect class="cls-12" x="545.95" y="185.77" width="224.49" height="371.96"/></g><g class="cls-13"><rect class="cls-14" x="411.59" y="234.59" width="429.1" height="489.76"/></g><g class="cls-15"><rect class="cls-16" x="348.64" y="355.59" width="322.42" height="378.91"/></g><g class="cls-17"><rect class="cls-18" x="516.01" width="241.13" height="557.73"/></g><g class="cls-19"><rect class="cls-20" x="565.74" y="62.84" width="177.01" height="311.9"/></g><g class="cls-21"><rect class="cls-22" x="516.01" width="86.46" height="259.66"/></g><g class="cls-23"><rect class="cls-24" x="545.95" y="185.77" width="211.18" height="371.96"/></g><path class="cls-25" d="M1000,1249.7c131.78,0,238.6,9.2,238.6,20.55s-106.82,20.55-238.6,20.55-238.6-9.2-238.6-20.55,106.82-20.55,238.6-20.55" transform="translate(-483.99 -489.26)"/></svg>